<svg width="24" height="19" viewBox="0 0 24 19" fill="none" xmlns="http://www.w3.org/2000/svg">
<path d="M21.8906 0H2.10938C0.946219 0 0 0.946219 0 2.10938V16.1719C0 17.335 0.946219 18.2812 2.10938 18.2812H21.8906C23.0538 18.2812 24 17.335 24 16.1719V2.10938C24 0.946219 23.0538 0 21.8906 0ZM9.14062 15.4688C5.73178 15.4688 2.8125 12.6809 2.8125 9.14062C2.8125 5.65111 5.65111 2.8125 9.14062 2.8125C12.6301 2.8125 15.4688 5.65111 15.4688 9.14062C15.4688 12.7081 12.5157 15.4688 9.14062 15.4688ZM20.4844 14.0625H17.5781C17.1895 14.0625 16.875 13.748 16.875 13.3594C16.875 12.9707 17.1895 12.6562 17.5781 12.6562H20.4844C20.873 12.6562 21.1875 12.9707 21.1875 13.3594C21.1875 13.748 20.873 14.0625 20.4844 14.0625ZM20.4844 11.25H17.5781C17.1895 11.25 16.875 10.9355 16.875 10.5469C16.875 10.1582 17.1895 9.84375 17.5781 9.84375H20.4844C20.873 9.84375 21.1875 10.1582 21.1875 10.5469C21.1875 10.9355 20.873 11.25 20.4844 11.25ZM20.4844 8.4375H17.5781C17.1895 8.4375 16.875 8.12302 16.875 7.73438C16.875 7.34573 17.1895 7.03125 17.5781 7.03125H20.4844C20.873 7.03125 21.1875 7.34573 21.1875 7.73438C21.1875 8.12302 20.873 8.4375 20.4844 8.4375ZM20.4844 5.625H17.5781C17.1895 5.625 16.875 5.31052 16.875 4.92188C16.875 4.53323 17.1895 4.21875 17.5781 4.21875H20.4844C20.873 4.21875 21.1875 4.53323 21.1875 4.92188C21.1875 5.31052 20.873 5.625 20.4844 5.625Z" fill="#045EA0"/>
<path d="M9.14062 4.21875C6.42698 4.21875 4.21875 6.42698 4.21875 9.14062C4.21875 10.1882 4.55339 11.1558 5.11364 11.9548C5.61127 11.239 6.27656 10.6695 7.05478 10.3068C6.60802 9.80883 6.32812 9.15778 6.32812 8.4375C6.32812 6.88636 7.58948 5.625 9.14062 5.625C10.6918 5.625 11.9531 6.88636 11.9531 8.4375C11.9531 9.15778 11.6732 9.80883 11.2265 10.3068C12.0047 10.6695 12.67 11.239 13.1676 11.9548C13.7279 11.1558 14.0625 10.1882 14.0625 9.14062C14.0625 6.42698 11.8543 4.21875 9.14062 4.21875Z" fill="#045EA0"/>
<path d="M9.14061 7.03125C8.36539 7.03125 7.73436 7.66228 7.73436 8.4375C7.73436 9.21272 8.36539 9.84375 9.14061 9.84375C9.91583 9.84375 10.5469 9.21272 10.5469 8.4375C10.5469 7.66228 9.91583 7.03125 9.14061 7.03125ZM9.14061 11.25C7.87377 11.25 6.73213 11.918 6.10803 12.9873C6.94663 13.6501 7.99142 14.0625 9.14061 14.0625C10.2898 14.0625 11.3346 13.6501 12.1732 12.9873C11.5491 11.918 10.4075 11.25 9.14061 11.25Z" fill="#045EA0"/>
</svg>
