<svg width="24" height="24" viewBox="0 0 24 24" fill="none" xmlns="http://www.w3.org/2000/svg">
<g clip-path="url(#clip0_8_401)">
<path d="M19.2 9.6C21.8469 9.6 24 7.44685 24 4.8C24 2.15315 21.8468 0 19.2 0C17.278 0 15.6207 1.1381 14.8549 2.77365L13.5695 2.2992C13.5848 2.2008 13.6 2.10235 13.6 2C13.6 0.89725 12.7028 0 11.6 0C10.4973 0 9.6 0.89725 9.6 2C9.6 3.10275 10.4973 4 11.6 4C12.3164 4 12.9412 3.618 13.2943 3.0504L14.5775 3.524C14.4649 3.93125 14.4 4.3576 14.4 4.8C14.4 5.324 14.4871 5.82715 14.6432 6.2996L10.2439 8.1641C9.43845 6.64115 7.83965 5.6 6 5.6C5.4039 5.6 4.83515 5.7145 4.308 5.91365L3.20155 3.5885C3.68355 3.22285 4 2.65 4 2C4 0.89725 3.10275 0 2 0C0.89725 0 0 0.89725 0 2C0 3.10275 0.89725 4 2 4C2.1664 4 2.326 3.97365 2.48085 3.93475L3.58595 6.2576C2.1615 7.0912 1.2 8.6336 1.2 10.4C1.2 12.0592 2.0465 13.5237 3.3297 14.386L2.598 15.7012C2.4076 15.6412 2.2095 15.6 2 15.6C0.89725 15.6 0 16.4972 0 17.6C0 18.7028 0.89725 19.6 2 19.6C3.10275 19.6 4 18.7028 4 17.6C4 16.9944 3.72365 16.4573 3.29725 16.0905L4.03045 14.7725C4.63205 15.0448 5.29765 15.2 6 15.2C7.09765 15.2 8.10725 14.8256 8.9168 14.2031L10.4912 15.9352C9.69275 16.7928 9.2 17.9385 9.2 19.2C9.2 19.4447 9.2244 19.6832 9.25955 19.918L7.40725 20.3576C7.0885 19.676 6.40075 19.2 5.6 19.2C4.49725 19.2 3.6 20.0972 3.6 21.2C3.6 22.3027 4.49725 23.2 5.6 23.2C6.70275 23.2 7.6 22.3027 7.6 21.2C7.6 21.1779 7.59395 21.1573 7.59355 21.1352L9.4424 20.6969C10.0729 22.6122 11.876 24 14 24C16.6469 24 18.8 21.8468 18.8 19.2C18.8 18.3793 18.5924 17.6064 18.2275 16.9305L20.5772 15.4028C20.9405 15.7708 21.4436 16 22 16C23.1028 16 24 15.1027 24 14C24 12.8973 23.1028 12 22 12C20.8973 12 20 12.8973 20 14C20 14.2584 20.0532 14.5039 20.1428 14.7309L17.7877 16.2619C17.3139 15.6525 16.7009 15.1655 16 14.842L17.9524 9.4297C18.3508 9.5371 18.768 9.6 19.2 9.6ZM11.6 3.2C10.9385 3.2 10.4 2.6615 10.4 2C10.4 1.3385 10.9385 0.8 11.6 0.8C12.2615 0.8 12.8 1.3385 12.8 2C12.8 2.6615 12.2615 3.2 11.6 3.2ZM0.8 2C0.8 1.3385 1.3385 0.8 2 0.8C2.6615 0.8 3.2 1.3385 3.2 2C3.2 2.6615 2.6615 3.2 2 3.2C1.3385 3.2 0.8 2.6615 0.8 2ZM2 18.8C1.3385 18.8 0.8 18.2615 0.8 17.6C0.8 16.9385 1.3385 16.4 2 16.4C2.6615 16.4 3.2 16.9385 3.2 17.6C3.2 18.2615 2.6615 18.8 2 18.8ZM5.6 22.4C4.9385 22.4 4.4 21.8615 4.4 21.2C4.4 20.5385 4.9385 20 5.6 20C6.2615 20 6.8 20.5385 6.8 21.2C6.8 21.8615 6.2615 22.4 5.6 22.4ZM22 12.8C22.6615 12.8 23.2 13.3385 23.2 14C23.2 14.6615 22.6615 15.2 22 15.2C21.3385 15.2 20.8 14.6615 20.8 14C20.8 13.3385 21.3385 12.8 22 12.8ZM16.8444 8.0256C17.0229 7.1004 17.8385 6.4 18.8 6.4H19.6C20.5615 6.4 21.3772 7.1004 21.5557 8.0256C20.894 8.50995 20.0813 8.8 19.2 8.8C18.3188 8.8 17.5061 8.51 16.8444 8.0256ZM19.2 5.6C18.5385 5.6 18 5.0615 18 4.4C18 3.7385 18.5385 3.2 19.2 3.2C19.8615 3.2 20.4 3.7385 20.4 4.4C20.4 5.0615 19.8615 5.6 19.2 5.6ZM19.2 0.8C21.4057 0.8 23.2 2.59435 23.2 4.8C23.2 5.8 22.8283 6.71365 22.2192 7.41565C21.9389 6.67755 21.3545 6.0885 20.6264 5.79765C20.9805 5.4367 21.2 4.944 21.2 4.4C21.2 3.29725 20.3027 2.4 19.2 2.4C18.0972 2.4 17.2 3.29725 17.2 4.4C17.2 4.94395 17.4195 5.4367 17.7736 5.79765C17.0455 6.0885 16.4612 6.67755 16.1809 7.41565C15.5717 6.71365 15.2 5.8 15.2 4.8C15.2 2.59435 16.9944 0.8 19.2 0.8ZM2 10.4C2 8.19435 3.79435 6.4 6 6.4C8.20565 6.4 10 8.19435 10 10.4C10 11.4032 9.626 12.3192 9.01365 13.0221C8.7344 12.2813 8.14885 11.6892 7.41875 11.3977C7.77245 11.0367 7.992 10.544 7.992 10C7.992 8.89725 7.09475 8 5.992 8C4.88925 8 3.992 8.89725 3.992 10C3.992 10.544 4.2115 11.0367 4.5656 11.3977C3.83965 11.6872 3.2561 12.274 2.9748 13.0092C2.36915 12.308 2 11.3973 2 10.4ZM4.792 10C4.792 9.3385 5.3305 8.8 5.992 8.8C6.6535 8.8 7.192 9.3385 7.192 10C7.192 10.6615 6.6535 11.2 5.992 11.2C5.3305 11.2 4.792 10.6615 4.792 10ZM3.6377 13.6203C3.81795 12.6977 4.6324 12 5.592 12H6.392C7.35525 12 8.1725 12.7028 8.34845 13.6309C7.6881 14.1124 6.87795 14.4 6 14.4C5.1156 14.4 4.3004 14.108 3.6377 13.6203ZM11.6377 22.4203C11.818 21.4977 12.6324 20.8 13.592 20.8H14.392C15.3553 20.8 16.1725 21.5028 16.3484 22.4309C15.6881 22.9123 14.878 23.2 14 23.2C13.1156 23.2 12.3004 22.908 11.6377 22.4203ZM13.992 20C13.3305 20 12.792 19.4615 12.792 18.8C12.792 18.1385 13.3305 17.6 13.992 17.6C14.6535 17.6 15.192 18.1385 15.192 18.8C15.192 19.4615 14.6535 20 13.992 20ZM18 19.2C18 20.2031 17.626 21.1192 17.0137 21.8221C16.7344 21.0813 16.1488 20.4893 15.4187 20.1977C15.7725 19.8367 15.992 19.344 15.992 18.8C15.992 17.6973 15.0948 16.8 13.992 16.8C12.8892 16.8 11.992 17.6973 11.992 18.8C11.992 19.344 12.2115 19.8367 12.5656 20.1977C11.8397 20.4872 11.2561 21.074 10.9748 21.8092C10.3692 21.108 10 20.1973 10 19.2C10 16.9944 11.7944 15.2 14 15.2C16.2057 15.2 18 16.9944 18 19.2ZM15.2477 14.5703C14.8492 14.4629 14.432 14.4 14 14.4C12.9024 14.4 11.8927 14.7744 11.0832 15.3969L9.5088 13.6649C10.3073 12.8073 10.8 11.6615 10.8 10.4C10.8 9.876 10.7129 9.37285 10.5568 8.9004L14.956 7.0359C15.4489 7.9676 16.2397 8.71525 17.2004 9.158L15.2477 14.5703Z" fill="#024283"/>
</g>
<defs>
<clipPath id="clip0_8_401">
<rect width="24" height="24" fill="white"/>
</clipPath>
</defs>
</svg>
