<svg width="24" height="24" viewBox="0 0 24 24" fill="none" xmlns="http://www.w3.org/2000/svg">
<g clip-path="url(#clip0_8_391)">
<path d="M6.62069 7.03448H24V22.7586C24 23.0879 23.8692 23.4036 23.6364 23.6364C23.4036 23.8692 23.0879 24 22.7586 24H1.24138C0.912145 24 0.596395 23.8692 0.363592 23.6364C0.130788 23.4036 0 23.0879 0 22.7586L0 7.03448H6.62069Z" fill="#ECF0F1"/>
<path d="M6.62069 7.86207H24V1.24138C24 0.912145 23.8692 0.596395 23.6364 0.363592C23.4036 0.130788 23.0879 0 22.7586 0L1.24138 0C0.912145 0 0.596395 0.130788 0.363592 0.363592C0.130788 0.596395 0 0.912145 0 1.24138L0 7.86207H6.62069Z" fill="#045EA0"/>
<path d="M3.72412 2.89655C3.83386 2.89655 3.93911 2.85296 4.01671 2.77536C4.09431 2.69776 4.13791 2.59251 4.13791 2.48276C4.13791 2.37302 4.09431 2.26777 4.01671 2.19016C3.93911 2.11256 3.83386 2.06897 3.72412 2.06897H2.06894C1.9592 2.06897 1.85395 2.11256 1.77635 2.19016C1.69875 2.26777 1.65515 2.37302 1.65515 2.48276C1.65515 2.59251 1.69875 2.69776 1.77635 2.77536C1.85395 2.85296 1.9592 2.89655 2.06894 2.89655H2.48274V5.37931H2.06894C1.9592 5.37931 1.85395 5.42291 1.77635 5.50051C1.69875 5.57811 1.65515 5.68336 1.65515 5.79311C1.65515 5.90285 1.69875 6.0081 1.77635 6.0857C1.85395 6.1633 1.9592 6.2069 2.06894 6.2069H3.72412C3.83386 6.2069 3.93911 6.1633 4.01671 6.0857C4.09431 6.0081 4.13791 5.90285 4.13791 5.79311C4.13791 5.68336 4.09431 5.57811 4.01671 5.50051C3.93911 5.42291 3.83386 5.37931 3.72412 5.37931H3.31032V2.89655H3.72412ZM21.5172 4.55173C21.627 4.55173 21.7322 4.50813 21.8098 4.43053C21.8874 4.35293 21.931 4.24768 21.931 4.13793C21.931 4.02819 21.8874 3.92294 21.8098 3.84534C21.7322 3.76774 21.627 3.72414 21.5172 3.72414H20.2758V2.89655H21.5172C21.627 2.89655 21.7322 2.85296 21.8098 2.77536C21.8874 2.69776 21.931 2.59251 21.931 2.48276C21.931 2.37302 21.8874 2.26777 21.8098 2.19016C21.7322 2.11256 21.627 2.06897 21.5172 2.06897H19.862C19.7523 2.06897 19.6471 2.11256 19.5695 2.19016C19.4919 2.26777 19.4483 2.37302 19.4483 2.48276V5.79311C19.4483 5.90285 19.4919 6.0081 19.5695 6.0857C19.6471 6.1633 19.7523 6.2069 19.862 6.2069H21.5172C21.627 6.2069 21.7322 6.1633 21.8098 6.0857C21.8874 6.0081 21.931 5.90285 21.931 5.79311C21.931 5.68336 21.8874 5.57811 21.8098 5.50051C21.7322 5.42291 21.627 5.37931 21.5172 5.37931H20.2758V4.55173H21.5172ZM15.3103 2.89655C15.4201 2.89655 15.5253 2.85296 15.6029 2.77536C15.6805 2.69776 15.7241 2.59251 15.7241 2.48276C15.7241 2.37302 15.6805 2.26777 15.6029 2.19016C15.5253 2.11256 15.4201 2.06897 15.3103 2.06897H13.6552C13.5454 2.06897 13.4402 2.11256 13.3626 2.19016C13.285 2.26777 13.2414 2.37302 13.2414 2.48276C13.2414 2.59251 13.285 2.69776 13.3626 2.77536C13.4402 2.85296 13.5454 2.89655 13.6552 2.89655H14.0689V5.37931H13.6552C13.5454 5.37931 13.4402 5.42291 13.3626 5.50051C13.285 5.57811 13.2414 5.68336 13.2414 5.79311C13.2414 5.90285 13.285 6.0081 13.3626 6.0857C13.4402 6.1633 13.5454 6.2069 13.6552 6.2069H15.3103C15.4201 6.2069 15.5253 6.1633 15.6029 6.0857C15.6805 6.0081 15.7241 5.90285 15.7241 5.79311C15.7241 5.68336 15.6805 5.57811 15.6029 5.50051C15.5253 5.42291 15.4201 5.37931 15.3103 5.37931H14.8965V2.89655H15.3103ZM6.62067 2.06897C6.51092 2.06897 6.40567 2.11256 6.32807 2.19016C6.25047 2.26777 6.20688 2.37302 6.20688 2.48276V4.04028L5.33791 2.2978C5.29692 2.21313 5.22831 2.14496 5.14338 2.10451C5.05845 2.06407 4.96227 2.05377 4.87071 2.07531C4.77914 2.09686 4.69765 2.14895 4.63966 2.22302C4.58167 2.29709 4.55065 2.3887 4.5517 2.48276V5.79311C4.5517 5.90285 4.5953 6.0081 4.6729 6.0857C4.7505 6.1633 4.85575 6.2069 4.9655 6.2069C5.07524 6.2069 5.18049 6.1633 5.25809 6.0857C5.33569 6.0081 5.37929 5.90285 5.37929 5.79311V4.23559L6.25032 5.97807C6.29194 6.06157 6.36055 6.12855 6.44502 6.16816C6.52949 6.20776 6.62487 6.21765 6.71567 6.19623C6.80647 6.17481 6.88737 6.12334 6.94524 6.05016C7.00311 5.97698 7.03455 5.8864 7.03446 5.79311V2.48276C7.03446 2.37302 6.99087 2.26777 6.91327 2.19016C6.83566 2.11256 6.73041 2.06897 6.62067 2.06897ZM9.61777 2.08138C9.51132 2.05472 9.39864 2.07143 9.30451 2.12785C9.21038 2.18426 9.14251 2.27576 9.11584 2.38221L8.68963 4.08704L8.26343 2.38221C8.23613 2.27644 8.16811 2.18576 8.07422 2.12994C7.98033 2.07412 7.86817 2.05769 7.76221 2.08424C7.65625 2.11078 7.56509 2.17815 7.5086 2.27164C7.45211 2.36513 7.43488 2.47717 7.46067 2.58331L8.28826 5.89366C8.31068 5.98313 8.36236 6.06255 8.43508 6.11929C8.5078 6.17604 8.59739 6.20686 8.68963 6.20686C8.78188 6.20686 8.87147 6.17604 8.94419 6.11929C9.01691 6.06255 9.06859 5.98313 9.09101 5.89366L9.9186 2.58331C9.94526 2.47686 9.92855 2.36418 9.87214 2.27005C9.81572 2.17592 9.72422 2.10805 9.61777 2.08138ZM11.5862 2.06897C11.257 2.06897 10.9412 2.19976 10.7084 2.43256C10.4756 2.66536 10.3448 2.98111 10.3448 3.31035V4.96552C10.3448 5.29475 10.4756 5.6105 10.7084 5.84331C10.9412 6.07611 11.257 6.2069 11.5862 6.2069C11.9154 6.2069 12.2312 6.07611 12.464 5.84331C12.6968 5.6105 12.8276 5.29475 12.8276 4.96552V3.31035C12.8276 2.98111 12.6968 2.66536 12.464 2.43256C12.2312 2.19976 11.9154 2.06897 11.5862 2.06897ZM12 4.96552C12 5.07526 11.9564 5.18051 11.8788 5.25812C11.8012 5.33572 11.6959 5.37931 11.5862 5.37931C11.4764 5.37931 11.3712 5.33572 11.2936 5.25812C11.216 5.18051 11.1724 5.07526 11.1724 4.96552V3.31035C11.1724 3.2006 11.216 3.09535 11.2936 3.01775C11.3712 2.94015 11.4764 2.89655 11.5862 2.89655C11.6959 2.89655 11.8012 2.94015 11.8788 3.01775C11.9564 3.09535 12 3.2006 12 3.31035V4.96552ZM17.3793 2.89655C17.6077 2.89655 17.7931 3.08193 17.7931 3.31035C17.7931 3.42009 17.8367 3.52534 17.9143 3.60294C17.9919 3.68054 18.0971 3.72414 18.2069 3.72414C18.3166 3.72414 18.4219 3.68054 18.4995 3.60294C18.5771 3.52534 18.6207 3.42009 18.6207 3.31035C18.6207 2.98111 18.4899 2.66536 18.2571 2.43256C18.0243 2.19976 17.7085 2.06897 17.3793 2.06897C17.0501 2.06897 16.7343 2.19976 16.5015 2.43256C16.2687 2.66536 16.1379 2.98111 16.1379 3.31035V4.96552C16.1379 5.29475 16.2687 5.6105 16.5015 5.84331C16.7343 6.07611 17.0501 6.2069 17.3793 6.2069C17.7085 6.2069 18.0243 6.07611 18.2571 5.84331C18.4899 5.6105 18.6207 5.29475 18.6207 4.96552C18.6207 4.85577 18.5771 4.75052 18.4995 4.67292C18.4219 4.59532 18.3166 4.55173 18.2069 4.55173C18.0971 4.55173 17.9919 4.59532 17.9143 4.67292C17.8367 4.75052 17.7931 4.85577 17.7931 4.96552C17.7931 5.07526 17.7495 5.18051 17.6719 5.25812C17.5943 5.33572 17.489 5.37931 17.3793 5.37931C17.2695 5.37931 17.1643 5.33572 17.0867 5.25812C17.0091 5.18051 16.9655 5.07526 16.9655 4.96552V3.31035C16.9655 3.2006 17.0091 3.09535 17.0867 3.01775C17.1643 2.94015 17.2695 2.89655 17.3793 2.89655Z" fill="white"/>
<path d="M7.86207 10.3448H2.48276C2.37302 10.3448 2.26777 10.3012 2.19017 10.2236C2.11257 10.146 2.06897 10.0408 2.06897 9.93104C2.06897 9.82129 2.11257 9.71604 2.19017 9.63844C2.26777 9.56084 2.37302 9.51724 2.48276 9.51724H7.86207C7.97182 9.51724 8.07707 9.56084 8.15467 9.63844C8.23227 9.71604 8.27587 9.82129 8.27587 9.93104C8.27587 10.0408 8.23227 10.146 8.15467 10.2236C8.07707 10.3012 7.97182 10.3448 7.86207 10.3448ZM7.86207 12H2.48276C2.37302 12 2.26777 11.9564 2.19017 11.8788C2.11257 11.8012 2.06897 11.696 2.06897 11.5862C2.06897 11.4765 2.11257 11.3712 2.19017 11.2936C2.26777 11.216 2.37302 11.1724 2.48276 11.1724H7.86207C7.97182 11.1724 8.07707 11.216 8.15467 11.2936C8.23227 11.3712 8.27587 11.4765 8.27587 11.5862C8.27587 11.696 8.23227 11.8012 8.15467 11.8788C8.07707 11.9564 7.97182 12 7.86207 12Z" fill="#045EA0"/>
<path d="M21.5172 13.2414H2.48274C2.26325 13.2414 2.05275 13.3286 1.89755 13.4838C1.74234 13.639 1.65515 13.8495 1.65515 14.069V21.5172C1.65515 21.7367 1.74234 21.9472 1.89755 22.1024C2.05275 22.2576 2.26325 22.3448 2.48274 22.3448H21.5172C21.7367 22.3448 21.9472 22.2576 22.1024 22.1024C22.2576 21.9472 22.3448 21.7367 22.3448 21.5172V14.069C22.3448 13.8495 22.2576 13.639 22.1024 13.4838C21.9472 13.3286 21.7367 13.2414 21.5172 13.2414ZM21.5172 15.7241H18.2069V14.069H21.5172V15.7241ZM17.3793 14.069V15.7241H2.48274V14.069H17.3793ZM2.48274 16.5517H17.3793V21.5172H2.48274V16.5517ZM18.2069 21.5172V16.5517H21.5172V21.5172H18.2069Z" fill="#BDC3C7"/>
<path d="M7.44834 17.4128V15.7767C7.9242 15.8938 8.27592 16.1996 8.27592 16.5517C8.27592 16.6615 8.31952 16.7667 8.39712 16.8443C8.47472 16.9219 8.57997 16.9655 8.68971 16.9655C8.79946 16.9655 8.90471 16.9219 8.98231 16.8443C9.05991 16.7667 9.10351 16.6615 9.10351 16.5517C9.10351 15.7523 8.39137 15.084 7.44834 14.9301V14.8966C7.44834 14.7868 7.40474 14.6816 7.32714 14.604C7.24954 14.5264 7.14429 14.4828 7.03454 14.4828C6.9248 14.4828 6.81955 14.5264 6.74195 14.604C6.66434 14.6816 6.62075 14.7868 6.62075 14.8966V14.9301C5.67771 15.084 4.96558 15.7523 4.96558 16.5517C4.96558 17.3512 5.67771 18.0194 6.62075 18.1734V19.8095C6.14489 19.6924 5.79316 19.3866 5.79316 19.0345C5.79316 18.9247 5.74957 18.8195 5.67197 18.7419C5.59436 18.6643 5.48911 18.6207 5.37937 18.6207C5.26962 18.6207 5.16437 18.6643 5.08677 18.7419C5.00917 18.8195 4.96558 18.9247 4.96558 19.0345C4.96558 19.8339 5.67771 20.5022 6.62075 20.6561V20.6897C6.62075 20.7994 6.66434 20.9046 6.74195 20.9823C6.81955 21.0599 6.9248 21.1034 7.03454 21.1034C7.14429 21.1034 7.24954 21.0599 7.32714 20.9823C7.40474 20.9046 7.44834 20.7994 7.44834 20.6897V20.6561C8.39137 20.5022 9.10351 19.8339 9.10351 19.0345C9.10351 18.235 8.39137 17.5668 7.44834 17.4128ZM5.79316 16.5517C5.79316 16.1996 6.14489 15.8938 6.62075 15.7767V17.3268C6.14489 17.2097 5.79316 16.9039 5.79316 16.5517ZM7.44834 19.8095V18.2594C7.9242 18.3766 8.27592 18.6823 8.27592 19.0345C8.27592 19.3866 7.9242 19.6924 7.44834 19.8095Z" fill="#4FBA6F"/>
</g>
<defs>
<clipPath id="clip0_8_391">
<rect width="24" height="24" fill="white"/>
</clipPath>
</defs>
</svg>
