<svg width="24" height="24" viewBox="0 0 24 24" fill="none" xmlns="http://www.w3.org/2000/svg">
<g clip-path="url(#clip0_8_387)">
<path d="M2.8 20H8.8V21.6H6.8C6.48174 21.6 6.17652 21.7264 5.95147 21.9515C5.72643 22.1765 5.6 22.4817 5.6 22.8C5.6 23.1183 5.72643 23.4235 5.95147 23.6485C6.17652 23.8736 6.48174 24 6.8 24H17.2C17.5183 24 17.8235 23.8736 18.0485 23.6485C18.2736 23.4235 18.4 23.1183 18.4 22.8C18.4 22.4817 18.2736 22.1765 18.0485 21.9515C17.8235 21.7264 17.5183 21.6 17.2 21.6H15.2V20H21.2C21.9423 19.999 22.654 19.7037 23.1788 19.1788C23.7037 18.654 23.999 17.9423 24 17.2V2.8C23.999 2.05769 23.7037 1.34605 23.1788 0.821153C22.654 0.296258 21.9423 0.000952567 21.2 0L2.8 0C2.05765 0.000846945 1.34595 0.296118 0.821036 0.821036C0.296118 1.34595 0.000846945 2.05765 0 2.8L0 17.2C0.000846945 17.9423 0.296118 18.654 0.821036 19.179C1.34595 19.7039 2.05765 19.9992 2.8 20ZM17.6 22.8C17.6 22.9061 17.5579 23.0078 17.4828 23.0828C17.4078 23.1579 17.3061 23.2 17.2 23.2H6.8C6.69391 23.2 6.59217 23.1579 6.51716 23.0828C6.44214 23.0078 6.4 22.9061 6.4 22.8C6.4 22.6939 6.44214 22.5922 6.51716 22.5172C6.59217 22.4421 6.69391 22.4 6.8 22.4H17.2C17.3061 22.4 17.4078 22.4421 17.4828 22.5172C17.5579 22.5922 17.6 22.6939 17.6 22.8ZM14.4 21.6H9.6V20H14.4V21.6ZM16 15.716C16.0326 15.3064 16.1948 14.9179 16.4632 14.6068C16.6323 14.395 16.849 14.226 17.0956 14.1136C17.2889 14.296 17.5442 14.3983 17.81 14.4H18.19C18.4554 14.3983 18.7103 14.2963 18.9036 14.1144C19.2062 14.2673 19.4653 14.4941 19.657 14.7738C19.8486 15.0535 19.9666 15.377 20 15.7144C19.9991 15.7894 19.9688 15.8611 19.9158 15.9142C19.8627 15.9672 19.791 15.9975 19.716 15.9984H16.284C16.2092 15.9975 16.1378 15.9675 16.0848 15.9148C16.0317 15.862 16.0013 15.7908 16 15.716ZM19.2 12.4C19.1997 12.4151 19.1936 12.4294 19.1829 12.4401C19.1722 12.4508 19.1579 12.4569 19.1428 12.4572C19.0367 12.4572 18.935 12.4993 18.86 12.5744C18.7849 12.6494 18.7428 12.7511 18.7428 12.8572V13.0468C18.7425 13.1122 18.7165 13.1748 18.6704 13.2212L18.364 13.5272C18.3179 13.5735 18.2554 13.5997 18.19 13.6H17.81C17.7446 13.5997 17.6821 13.5735 17.636 13.5272L17.3296 13.2212C17.2835 13.1748 17.2575 13.1122 17.2572 13.0468V12.8572C17.2497 12.7462 17.2008 12.642 17.1201 12.5653C17.0394 12.4886 16.9329 12.4451 16.8216 12.4432C16.8192 12.4432 16.8024 12.4032 16.8 12.4V12C16.8003 11.9849 16.8064 11.9706 16.8171 11.9599C16.8278 11.9492 16.8421 11.9431 16.8572 11.9428C16.9633 11.9428 17.065 11.9007 17.14 11.8256C17.2151 11.7506 17.2572 11.6489 17.2572 11.5428C17.2572 11.3458 17.3355 11.1569 17.4748 11.0176C17.6141 10.8783 17.803 10.8 18 10.8C18.197 10.8 18.3859 10.8783 18.5252 11.0176C18.6645 11.1569 18.7428 11.3458 18.7428 11.5428C18.7428 11.6489 18.7849 11.7506 18.86 11.8256C18.935 11.9007 19.0367 11.9428 19.1428 11.9428C19.1579 11.9431 19.1722 11.9492 19.1829 11.9599C19.1936 11.9706 19.1997 11.9849 19.2 12V12.4ZM19.44 13.4948C19.4903 13.3897 19.5227 13.277 19.536 13.1612C19.6756 13.089 19.7927 12.9798 19.8746 12.8456C19.9564 12.7113 19.9998 12.5572 20 12.4V12C19.9999 11.8378 19.9538 11.6789 19.8671 11.5419C19.7804 11.4048 19.6566 11.2951 19.51 11.2256C19.4373 10.8789 19.2476 10.5678 18.9726 10.3444C18.6977 10.1211 18.3542 9.99924 18 9.99924C17.6458 9.99924 17.3023 10.1211 17.0274 10.3444C16.7524 10.5678 16.5627 10.8789 16.49 11.2256C16.3435 11.2951 16.2196 11.4048 16.1329 11.5419C16.0462 11.6789 16.0001 11.8378 16 12V12.4C15.9995 12.5115 16.0211 12.6219 16.0637 12.7249C16.1063 12.8279 16.1689 12.9214 16.248 13C16.3107 13.0647 16.3835 13.1187 16.4636 13.16C16.4766 13.2745 16.5085 13.386 16.558 13.49C16.2838 13.6473 16.0412 13.8543 15.8428 14.1004C15.4572 14.5539 15.2313 15.1216 15.2 15.716C15.2014 15.8121 15.2156 15.9077 15.2424 16H12.4V8.8H23.2V16H20.7576C20.7844 15.9077 20.7986 15.8121 20.8 15.716C20.7701 15.2633 20.6307 14.8247 20.3938 14.4378C20.1569 14.0509 19.8296 13.7273 19.44 13.4948ZM16 7.716C16.0326 7.30643 16.1948 6.9179 16.4632 6.6068C16.6323 6.39497 16.849 6.226 17.0956 6.1136C17.2889 6.29598 17.5442 6.39832 17.81 6.4H18.19C18.4554 6.39833 18.7103 6.2963 18.9036 6.1144C19.2062 6.26733 19.4653 6.49414 19.657 6.77382C19.8486 7.05349 19.9666 7.37701 20 7.7144C19.9991 7.78943 19.9688 7.86113 19.9158 7.91419C19.8627 7.96725 19.791 7.99747 19.716 7.9984H16.284C16.2092 7.99748 16.1378 7.96748 16.0848 7.91476C16.0317 7.86204 16.0013 7.79075 16 7.716ZM19.2 4.4C19.1997 4.41507 19.1936 4.42945 19.1829 4.44011C19.1722 4.45077 19.1579 4.45689 19.1428 4.4572C19.0367 4.4572 18.935 4.49934 18.86 4.57436C18.7849 4.64937 18.7428 4.75111 18.7428 4.8572V5.0468C18.7425 5.11218 18.7165 5.17482 18.6704 5.2212L18.364 5.5272C18.3179 5.57355 18.2554 5.59973 18.19 5.6H17.81C17.7446 5.59973 17.6821 5.57355 17.636 5.5272L17.3296 5.2212C17.2835 5.17482 17.2575 5.11218 17.2572 5.0468V4.8572C17.2497 4.74616 17.2008 4.64198 17.1201 4.56531C17.0394 4.48863 16.9329 4.44505 16.8216 4.4432C16.8192 4.4412 16.8024 4.4032 16.8 4.4V4C16.8003 3.98493 16.8064 3.97055 16.8171 3.95989C16.8278 3.94923 16.8421 3.94311 16.8572 3.9428C16.9633 3.9428 17.065 3.90066 17.14 3.82564C17.2151 3.75063 17.2572 3.64889 17.2572 3.5428C17.2572 3.3458 17.3355 3.15686 17.4748 3.01756C17.6141 2.87826 17.803 2.8 18 2.8C18.197 2.8 18.3859 2.87826 18.5252 3.01756C18.6645 3.15686 18.7428 3.3458 18.7428 3.5428C18.7428 3.64889 18.7849 3.75063 18.86 3.82564C18.935 3.90066 19.0367 3.9428 19.1428 3.9428C19.1579 3.94311 19.1722 3.94923 19.1829 3.95989C19.1936 3.97055 19.1997 3.98493 19.2 4V4.4ZM23.2 2.8V8H20.7576C20.7844 7.90765 20.7986 7.81214 20.8 7.716C20.7701 7.26332 20.6307 6.82469 20.3938 6.43778C20.1569 6.05088 19.8296 5.72728 19.44 5.4948C19.4903 5.38969 19.5227 5.27695 19.536 5.1612C19.6756 5.08897 19.7927 4.97979 19.8746 4.84556C19.9564 4.71133 19.9998 4.5572 20 4.4V4C19.9999 3.83779 19.9538 3.67894 19.8671 3.54186C19.7804 3.40479 19.6566 3.29513 19.51 3.2256C19.4373 2.8789 19.2476 2.56777 18.9726 2.34445C18.6977 2.12113 18.3542 1.99924 18 1.99924C17.6458 1.99924 17.3023 2.12113 17.0274 2.34445C16.7524 2.56777 16.5627 2.8789 16.49 3.2256C16.3435 3.29513 16.2196 3.40479 16.1329 3.54186C16.0462 3.67894 16.0001 3.83779 16 4V4.4C15.9995 4.51146 16.0211 4.62192 16.0637 4.72493C16.1063 4.82794 16.1689 4.92145 16.248 5C16.3107 5.06469 16.3835 5.11873 16.4636 5.16C16.4766 5.27447 16.5085 5.38599 16.558 5.49C16.2838 5.64729 16.0412 5.85429 15.8428 6.1004C15.4572 6.55388 15.2313 7.12155 15.2 7.716C15.2014 7.81214 15.2156 7.90765 15.2424 8H12.4V0.8H21.2C21.7302 0.800635 22.2386 1.01155 22.6135 1.38649C22.9884 1.76142 23.1994 2.26976 23.2 2.8ZM2.8 0.8H11.6V16H0.8V2.8C0.800635 2.26976 1.01155 1.76142 1.38649 1.38649C1.76142 1.01155 2.26976 0.800635 2.8 0.8ZM0.8 16.8H23.2V17.2C23.1994 17.7302 22.9884 18.2386 22.6135 18.6135C22.2386 18.9884 21.7302 19.1994 21.2 19.2H2.8C2.26976 19.1994 1.76142 18.9884 1.38649 18.6135C1.01155 18.2386 0.800635 17.7302 0.8 17.2V16.8Z" fill="#024283"/>
<path d="M3.19998 14.4H8.79998C9.22432 14.4 9.63129 14.2314 9.93135 13.9314C10.2314 13.6313 10.4 13.2243 10.4 12.8V12.414C10.3992 11.8132 10.1625 11.2367 9.74078 10.8088C9.89926 10.5679 9.98889 10.2882 9.99998 10C9.99949 9.93484 9.98332 9.87076 9.95282 9.81318C9.92232 9.7556 9.8784 9.70621 9.82478 9.6692C9.78278 9.64 8.79998 8.9416 8.79998 7.2V6C8.79998 4.2992 7.70078 3.2 5.99998 3.2C4.29918 3.2 3.19998 4.2992 3.19998 6V7.2C3.19998 8.9416 2.21718 9.64 2.17798 9.6672C2.12321 9.70374 2.07831 9.75323 2.04726 9.81129C2.01621 9.86934 1.99997 9.93416 1.99998 10C2.01106 10.2882 2.10069 10.5679 2.25918 10.8088C1.83748 11.2367 1.60075 11.8132 1.59998 12.414V12.8C1.59998 13.2243 1.76855 13.6313 2.0686 13.9314C2.36866 14.2314 2.77563 14.4 3.19998 14.4ZM9.59998 12.8C9.59998 13.0122 9.51569 13.2157 9.36566 13.3657C9.21563 13.5157 9.01215 13.6 8.79998 13.6H3.19998C2.9878 13.6 2.78432 13.5157 2.63429 13.3657C2.48426 13.2157 2.39998 13.0122 2.39998 12.8V12.414C2.399 12.0574 2.52508 11.7121 2.75561 11.44C2.98613 11.1679 3.30604 10.9868 3.65798 10.9292L4.19278 10.84C4.42598 11.16 4.93798 11.6 5.99998 11.6C7.06198 11.6 7.57398 11.16 7.80718 10.84L8.34198 10.9292C8.69391 10.9868 9.01382 11.1679 9.24435 11.44C9.47488 11.7121 9.60095 12.0574 9.59998 12.414V12.8ZM3.99998 6.856C4.00176 6.77894 4.03406 6.70574 4.08979 6.65249C4.14552 6.59923 4.22011 6.57028 4.29718 6.572C4.7172 6.59918 5.13807 6.53386 5.53009 6.38063C5.9221 6.2274 6.27572 5.99001 6.56598 5.6852C6.73393 5.72588 6.89071 5.80345 7.02494 5.91228C7.15917 6.02112 7.26747 6.15848 7.34198 6.3144C7.37085 6.39019 7.42208 6.45542 7.48887 6.50142C7.55567 6.54743 7.63487 6.57204 7.71598 6.572C7.79101 6.57293 7.8627 6.60316 7.91576 6.65621C7.96882 6.70927 7.99904 6.78097 7.99998 6.856V7.2C7.99951 7.23978 7.99076 7.27903 7.97431 7.31526C7.95785 7.35148 7.93403 7.38388 7.90438 7.4104C7.8797 7.43494 7.85024 7.45413 7.81783 7.4668C7.78542 7.47946 7.75075 7.48531 7.71598 7.484C7.60989 7.484 7.50815 7.52614 7.43313 7.60116C7.35812 7.67617 7.31598 7.77791 7.31598 7.884C7.29417 8.24086 7.14317 8.57757 6.89118 8.8312C6.65145 9.0591 6.33354 9.18652 6.00277 9.18727C5.67201 9.18801 5.35352 9.06202 5.11278 8.8352C4.85871 8.58098 4.70623 8.24272 4.68398 7.884C4.68398 7.77791 4.64183 7.67617 4.56682 7.60116C4.4918 7.52614 4.39006 7.484 4.28398 7.484C4.20894 7.48307 4.13725 7.45285 4.08419 7.39979C4.03113 7.34673 4.00091 7.27503 3.99998 7.2V6.856ZM7.16958 10.362C7.06238 10.5136 6.75998 10.8 5.99998 10.8C5.23998 10.8 4.93358 10.51 4.82958 10.3636L5.02118 9.7416C5.31955 9.9111 5.65682 10.0002 5.99998 10.0002C6.34313 10.0002 6.6804 9.9111 6.97878 9.7416L7.16958 10.362ZM9.16958 10.162C9.1503 10.225 9.12344 10.2855 9.08958 10.342C8.89512 10.2458 8.68799 10.1776 8.47438 10.1396L7.90998 10.0452L7.64278 9.1772C7.86034 8.89666 8.01084 8.57006 8.08278 8.2224C8.09158 8.2192 8.09918 8.2132 8.10838 8.21C8.25217 8.95465 8.62253 9.63669 9.16878 10.1628L9.16958 10.162ZM5.99998 4C7.20278 4 7.91158 4.6588 7.98558 5.8056C7.81302 5.54478 7.58683 5.32375 7.32211 5.15724C7.05738 4.99074 6.7602 4.88259 6.45038 4.84C6.37002 4.83124 6.28887 4.84637 6.21708 4.88351C6.14528 4.92066 6.08605 4.97815 6.04678 5.0488C6.03038 5.0784 5.63158 5.7688 4.29598 5.7728C4.20131 5.77399 4.10719 5.78743 4.01598 5.8128C4.08518 4.6616 4.79478 4 5.99998 4ZM2.83118 10.1632C3.37786 9.63671 3.74838 8.95407 3.89198 8.2088C3.90078 8.212 3.90838 8.2168 3.91678 8.22C3.98814 8.56882 4.13867 8.89658 4.35678 9.178L4.08958 10.046L3.52518 10.1404C3.31156 10.1784 3.10443 10.2466 2.90998 10.3428C2.87644 10.2864 2.84998 10.2261 2.83118 10.1632ZM11.6 18.4H12.4C12.5061 18.4 12.6078 18.3579 12.6828 18.2828C12.7578 18.2078 12.8 18.1061 12.8 18C12.8 17.8939 12.7578 17.7922 12.6828 17.7172C12.6078 17.6421 12.5061 17.6 12.4 17.6H11.6C11.4939 17.6 11.3921 17.6421 11.3171 17.7172C11.2421 17.7922 11.2 17.8939 11.2 18C11.2 18.1061 11.2421 18.2078 11.3171 18.2828C11.3921 18.3579 11.4939 18.4 11.6 18.4Z" fill="#024283"/>
</g>
<defs>
<clipPath id="clip0_8_387">
<rect width="24" height="24" fill="white"/>
</clipPath>
</defs>
</svg>
