<svg width="25" height="25" viewBox="0 0 25 25" fill="none" xmlns="http://www.w3.org/2000/svg">
<circle cx="12.5" cy="12.5" r="12.5" fill="#024283"/>
<g clip-path="url(#clip0_8_495)">
<path d="M12.5 6.64706C13.231 6.64706 13.8236 6.0545 13.8236 5.32353V4H11.1765V5.32353C11.1765 6.0545 11.7691 6.64706 12.5 6.64706Z" fill="white"/>
<path d="M12.5 10.1765C12.7437 10.1765 12.9412 9.97894 12.9412 9.73529C12.9412 9.49163 12.7437 9.29411 12.5 9.29411C12.2564 9.29411 12.0588 9.49163 12.0588 9.73529C12.0588 9.97894 12.2564 10.1765 12.5 10.1765Z" fill="white"/>
<path d="M14.6615 5.76471C14.4566 6.77033 13.5653 7.52942 12.5 7.52942C11.4348 7.52942 10.5435 6.77033 10.3385 5.76471H7.64709V12.8235H10.2942V12.3824C10.2942 11.5662 10.74 10.8527 11.4006 10.4712C11.2542 10.2537 11.1762 9.99744 11.1765 9.7353C11.1765 9.0055 11.7703 8.41177 12.5 8.41177C13.2299 8.41177 13.8236 9.0055 13.8236 9.7353C13.8236 10.0075 13.7409 10.2607 13.5995 10.4712C14.2601 10.8527 14.7059 11.5662 14.7059 12.3824V12.8235H17.353V5.76471H14.6615Z" fill="white"/>
<path d="M11.1765 12.3824V12.8235H13.8236V12.3824C13.8236 11.6526 13.2299 11.0588 12.5 11.0588C11.7703 11.0588 11.1765 11.6526 11.1765 12.3824ZM7.64709 13.7059V19H17.353V13.7059H7.64709ZM12.0589 17.6765H9.4118V16.7941H12.0589V17.6765ZM12.0589 15.9118H9.4118V15.0294H12.0589V15.9118ZM15.5883 17.6765H12.9412V16.7941H15.5883V17.6765ZM15.5883 15.9118H12.9412V15.0294H15.5883V15.9118Z" fill="white"/>
</g>
<defs>
<clipPath id="clip0_8_495">
<rect width="15" height="15" fill="white" transform="translate(5 4)"/>
</clipPath>
</defs>
</svg>
