<svg width="34" height="34" viewBox="0 0 34 34" fill="none" xmlns="http://www.w3.org/2000/svg">
<g clip-path="url(#clip0_74_458)">
<path d="M27.2 13.6C30.9498 13.6 34 10.5497 34 6.8C34 3.0503 30.9497 0 27.2 0C24.4771 0 22.1293 1.61231 21.0444 3.92934L19.2235 3.2572C19.2451 3.1178 19.2667 2.97833 19.2667 2.83333C19.2667 1.2711 17.9956 0 16.4333 0C14.8711 0 13.6 1.2711 13.6 2.83333C13.6 4.39556 14.8711 5.66667 16.4333 5.66667C17.4482 5.66667 18.3334 5.1255 18.8337 4.3214L20.6515 4.99233C20.4919 5.56927 20.4 6.17327 20.4 6.8C20.4 7.54233 20.5234 8.25513 20.7445 8.92443L14.5123 11.5658C13.3711 9.4083 11.1062 7.93333 8.5 7.93333C7.65552 7.93333 6.8498 8.09554 6.103 8.37767L4.53553 5.08371C5.21836 4.5657 5.66667 3.75417 5.66667 2.83333C5.66667 1.2711 4.39556 0 2.83333 0C1.2711 0 0 1.2711 0 2.83333C0 4.39556 1.2711 5.66667 2.83333 5.66667C3.06907 5.66667 3.29517 5.62934 3.51454 5.57423L5.0801 8.86493C3.06212 10.0459 1.7 12.2309 1.7 14.7333C1.7 17.0839 2.89921 19.1585 4.71707 20.3801L3.6805 22.2433C3.41077 22.1584 3.13013 22.1 2.83333 22.1C1.2711 22.1 0 23.3711 0 24.9333C0 26.4956 1.2711 27.7667 2.83333 27.7667C4.39556 27.7667 5.66667 26.4956 5.66667 24.9333C5.66667 24.0753 5.27517 23.3144 4.6711 22.7948L5.7098 20.9276C6.56207 21.3134 7.505 21.5333 8.5 21.5333C10.055 21.5333 11.4853 21.0029 12.6321 20.1211L14.8625 22.5748C13.7314 23.7897 13.0333 25.4129 13.0333 27.2C13.0333 27.5467 13.0679 27.8845 13.1177 28.2172L10.4936 28.8399C10.042 27.8743 9.06773 27.2 7.93333 27.2C6.3711 27.2 5.1 28.4711 5.1 30.0333C5.1 31.5956 6.3711 32.8667 7.93333 32.8667C9.49556 32.8667 10.7667 31.5956 10.7667 30.0333C10.7667 30.0021 10.7581 29.9728 10.7575 29.9415L13.3767 29.3206C14.2699 32.034 16.8243 34 19.8333 34C23.5831 34 26.6333 30.9497 26.6333 27.2C26.6333 26.0373 26.3392 24.9425 25.8223 23.9849L29.151 21.8206C29.6656 22.3419 30.3784 22.6667 31.1667 22.6667C32.7289 22.6667 34 21.3956 34 19.8333C34 18.2711 32.7289 17 31.1667 17C29.6044 17 28.3333 18.2711 28.3333 19.8333C28.3333 20.1994 28.4086 20.5472 28.5356 20.8687L25.1992 23.0377C24.528 22.1743 23.6596 21.4845 22.6667 21.0262L25.4325 13.3587C25.997 13.5109 26.5879 13.6 27.2 13.6ZM16.4333 4.53333C15.4962 4.53333 14.7333 3.77046 14.7333 2.83333C14.7333 1.89621 15.4962 1.13333 16.4333 1.13333C17.3705 1.13333 18.1333 1.89621 18.1333 2.83333C18.1333 3.77046 17.3705 4.53333 16.4333 4.53333ZM1.13333 2.83333C1.13333 1.89621 1.89621 1.13333 2.83333 1.13333C3.77046 1.13333 4.53333 1.89621 4.53333 2.83333C4.53333 3.77046 3.77046 4.53333 2.83333 4.53333C1.89621 4.53333 1.13333 3.77046 1.13333 2.83333ZM2.83333 26.6333C1.89621 26.6333 1.13333 25.8705 1.13333 24.9333C1.13333 23.9962 1.89621 23.2333 2.83333 23.2333C3.77046 23.2333 4.53333 23.9962 4.53333 24.9333C4.53333 25.8705 3.77046 26.6333 2.83333 26.6333ZM7.93333 31.7333C6.99621 31.7333 6.23333 30.9705 6.23333 30.0333C6.23333 29.0962 6.99621 28.3333 7.93333 28.3333C8.87046 28.3333 9.63333 29.0962 9.63333 30.0333C9.63333 30.9705 8.87046 31.7333 7.93333 31.7333ZM31.1667 18.1333C32.1038 18.1333 32.8667 18.8962 32.8667 19.8333C32.8667 20.7705 32.1038 21.5333 31.1667 21.5333C30.2295 21.5333 29.4667 20.7705 29.4667 19.8333C29.4667 18.8962 30.2295 18.1333 31.1667 18.1333ZM23.8628 11.3696C24.1157 10.0589 25.2712 9.06667 26.6333 9.06667H27.7667C29.1288 9.06667 30.2843 10.0589 30.5372 11.3696C29.5998 12.0558 28.4484 12.4667 27.2 12.4667C25.9516 12.4667 24.8002 12.0558 23.8628 11.3696ZM27.2 7.93333C26.2629 7.93333 25.5 7.17046 25.5 6.23333C25.5 5.29621 26.2629 4.53333 27.2 4.53333C28.1371 4.53333 28.9 5.29621 28.9 6.23333C28.9 7.17046 28.1371 7.93333 27.2 7.93333ZM27.2 1.13333C30.3247 1.13333 32.8667 3.67533 32.8667 6.8C32.8667 8.21667 32.3401 9.511 31.4771 10.5055C31.08 9.45986 30.2522 8.62537 29.2207 8.21334C29.7224 7.70199 30.0333 7.004 30.0333 6.23333C30.0333 4.6711 28.7622 3.4 27.2 3.4C25.6378 3.4 24.3667 4.6711 24.3667 6.23333C24.3667 7.00393 24.6776 7.70199 25.1793 8.21334C24.1478 8.62537 23.32 9.45986 22.9229 10.5055C22.0599 9.511 21.5333 8.21667 21.5333 6.8C21.5333 3.67533 24.0753 1.13333 27.2 1.13333ZM2.83333 14.7333C2.83333 11.6087 5.37533 9.06667 8.5 9.06667C11.6247 9.06667 14.1667 11.6087 14.1667 14.7333C14.1667 16.1545 13.6368 17.4521 12.7693 18.4479C12.3737 17.3984 11.5442 16.5598 10.5099 16.1467C11.011 15.6353 11.322 14.9373 11.322 14.1667C11.322 12.6044 10.0509 11.3333 8.48867 11.3333C6.92644 11.3333 5.65533 12.6044 5.65533 14.1667C5.65533 14.9373 5.96629 15.6353 6.46793 16.1467C5.4395 16.5568 4.61281 17.3882 4.2143 18.4296C3.3563 17.4363 2.83333 16.1462 2.83333 14.7333ZM6.78867 14.1667C6.78867 13.2295 7.55154 12.4667 8.48867 12.4667C9.42579 12.4667 10.1887 13.2295 10.1887 14.1667C10.1887 15.1038 9.42579 15.8667 8.48867 15.8667C7.55154 15.8667 6.78867 15.1038 6.78867 14.1667ZM5.15341 19.2954C5.40876 17.9883 6.56257 17 7.922 17H9.05533C10.4199 17 11.5777 17.9956 11.827 19.3104C10.8915 19.9925 9.74376 20.4 8.5 20.4C7.2471 20.4 6.09223 19.9863 5.15341 19.2954ZM16.4867 31.7621C16.7421 30.455 17.8959 29.4667 19.2553 29.4667H20.3887C21.7533 29.4667 22.911 30.4622 23.1603 31.777C22.2248 32.4592 21.0771 32.8667 19.8333 32.8667C18.5804 32.8667 17.4256 32.453 16.4867 31.7621ZM19.822 28.3333C18.8849 28.3333 18.122 27.5705 18.122 26.6333C18.122 25.6962 18.8849 24.9333 19.822 24.9333C20.7591 24.9333 21.522 25.6962 21.522 26.6333C21.522 27.5705 20.7591 28.3333 19.822 28.3333ZM25.5 27.2C25.5 28.6211 24.9702 29.9188 24.1027 30.9146C23.707 29.8651 22.8775 29.0264 21.8432 28.6133C22.3443 28.102 22.6553 27.4039 22.6553 26.6333C22.6553 25.0711 21.3842 23.8 19.822 23.8C18.2598 23.8 16.9887 25.0711 16.9887 26.6333C16.9887 27.4039 17.2996 28.102 17.8013 28.6133C16.7728 29.0235 15.9461 29.8548 15.5476 30.8963C14.6896 29.903 14.1667 28.6128 14.1667 27.2C14.1667 24.0753 16.7087 21.5333 19.8333 21.5333C22.958 21.5333 25.5 24.0753 25.5 27.2ZM21.6008 20.6413C21.0364 20.4891 20.4454 20.4 19.8333 20.4C18.2783 20.4 16.8481 20.9304 15.7012 21.8123L13.4708 19.3585C14.6019 18.1436 15.3 16.5205 15.3 14.7333C15.3 13.991 15.1766 13.2782 14.9555 12.6089L21.1877 9.96753C21.8859 11.2874 23.0062 12.3466 24.3672 12.9738L21.6008 20.6413Z" fill="white"/>
</g>
<defs>
<clipPath id="clip0_74_458">
<rect width="34" height="34" fill="white"/>
</clipPath>
</defs>
</svg>
