<svg width="28" height="24" viewBox="0 0 28 24" fill="none" xmlns="http://www.w3.org/2000/svg">
<path d="M25.5391 0H2.46094C1.10392 0 0 1.24222 0 2.76923V21.2308C0 22.7578 1.10392 24 2.46094 24H25.5391C26.8961 24 28 22.7578 28 21.2308V2.76923C28 1.24222 26.8961 0 25.5391 0ZM10.6641 20.3077C6.68708 20.3077 3.28125 16.6478 3.28125 12C3.28125 7.41889 6.59296 3.69231 10.6641 3.69231C14.7352 3.69231 18.0469 7.41889 18.0469 12C18.0469 16.6834 14.6016 20.3077 10.6641 20.3077ZM23.8984 18.4615H20.5078C20.0544 18.4615 19.6875 18.0487 19.6875 17.5385C19.6875 17.0282 20.0544 16.6154 20.5078 16.6154H23.8984C24.3519 16.6154 24.7188 17.0282 24.7188 17.5385C24.7188 18.0487 24.3519 18.4615 23.8984 18.4615ZM23.8984 14.7692H20.5078C20.0544 14.7692 19.6875 14.3564 19.6875 13.8462C19.6875 13.3359 20.0544 12.9231 20.5078 12.9231H23.8984C24.3519 12.9231 24.7188 13.3359 24.7188 13.8462C24.7188 14.3564 24.3519 14.7692 23.8984 14.7692ZM23.8984 11.0769H20.5078C20.0544 11.0769 19.6875 10.6641 19.6875 10.1538C19.6875 9.64363 20.0544 9.23077 20.5078 9.23077H23.8984C24.3519 9.23077 24.7188 9.64363 24.7188 10.1538C24.7188 10.6641 24.3519 11.0769 23.8984 11.0769ZM23.8984 7.38462H20.5078C20.0544 7.38462 19.6875 6.97175 19.6875 6.46154C19.6875 5.95132 20.0544 5.53846 20.5078 5.53846H23.8984C24.3519 5.53846 24.7188 5.95132 24.7188 6.46154C24.7188 6.97175 24.3519 7.38462 23.8984 7.38462Z" fill="white"/>
<path d="M10.6641 5.53845C7.49815 5.53845 4.92188 8.43747 4.92188 12C4.92188 13.3753 5.31229 14.6455 5.96591 15.6945C6.54648 14.7548 7.32266 14.0071 8.23058 13.531C7.70935 12.8772 7.38281 12.0225 7.38281 11.0769C7.38281 9.04054 8.8544 7.38461 10.6641 7.38461C12.4737 7.38461 13.9453 9.04054 13.9453 11.0769C13.9453 12.0225 13.6188 12.8772 13.0975 13.531C14.0055 14.0071 14.7816 14.7548 15.3622 15.6945C16.0158 14.6455 16.4062 13.3753 16.4062 12C16.4062 8.43747 13.83 5.53845 10.6641 5.53845Z" fill="white"/>
<path d="M10.664 9.23077C9.75962 9.23077 9.02342 10.0592 9.02342 11.0769C9.02342 12.0947 9.75962 12.9231 10.664 12.9231C11.5685 12.9231 12.3047 12.0947 12.3047 11.0769C12.3047 10.0592 11.5685 9.23077 10.664 9.23077ZM10.664 14.7692C9.18606 14.7692 7.85415 15.6462 7.12604 17.05C8.1044 17.9201 9.32333 18.4615 10.664 18.4615C12.0048 18.4615 13.2237 17.9201 14.2021 17.05C13.4739 15.6462 12.142 14.7692 10.664 14.7692Z" fill="white"/>
</svg>
