<svg width="19" height="20" viewBox="0 0 19 20" fill="none" xmlns="http://www.w3.org/2000/svg">
<path d="M2.97649 0.116333C1.87192 0.116333 0.976491 1.01176 0.976491 2.11633V3.04985C0.976491 4.15442 1.87192 5.04985 2.97649 5.04985H16.2729C17.3775 5.04985 18.2729 4.15442 18.2729 3.04985V2.11633C18.2729 1.01176 17.3775 0.116333 16.2729 0.116333H2.97649ZM0.951782 7.5166C0.965429 7.5166 0.976491 7.52767 0.976491 7.54131V19.6284C0.976491 19.7517 1.07533 19.8504 1.19887 19.8504H18.0258C18.1493 19.8504 18.2482 19.7517 18.2482 19.6284V9.5166C18.2482 8.41203 17.3527 7.5166 16.2482 7.5166H0.951782V7.5166ZM3.4474 11.2167C3.4474 10.5356 4.00169 9.98336 4.68286 9.98336V9.98336C5.36404 9.98336 5.91832 10.5356 5.91832 11.2167V11.2167C5.91832 11.8979 5.36404 12.4501 4.68286 12.4501V12.4501C4.00169 12.4501 3.4474 11.8979 3.4474 11.2167V11.2167ZM8.38923 11.2167C8.38923 10.5356 8.94351 9.98336 9.62469 9.98336V9.98336C10.3059 9.98336 10.8601 10.5356 10.8601 11.2167V11.2167C10.8601 11.8979 10.3059 12.4501 9.62469 12.4501V12.4501C8.94351 12.4501 8.38923 11.8979 8.38923 11.2167V11.2167ZM13.3311 11.2167C13.3311 10.5356 13.8853 9.98336 14.5665 9.98336V9.98336C15.2477 9.98336 15.802 10.5356 15.802 11.2167V11.2167C15.802 11.8979 15.2477 12.4501 14.5665 12.4501V12.4501C13.8853 12.4501 13.3311 11.8979 13.3311 11.2167V11.2167ZM3.4474 16.1503C3.4474 15.4691 4.00169 14.9169 4.68286 14.9169V14.9169C5.36404 14.9169 5.91832 15.4691 5.91832 16.1503V16.1503C5.91832 16.8314 5.36404 17.3836 4.68286 17.3836V17.3836C4.00169 17.3836 3.4474 16.8314 3.4474 16.1503V16.1503ZM8.38923 16.1503C8.38923 15.4691 8.94351 14.9169 9.62469 14.9169V14.9169C10.3059 14.9169 10.8601 15.4691 10.8601 16.1503V16.1503C10.8601 16.8314 10.3059 17.3836 9.62469 17.3836V17.3836C8.94351 17.3836 8.38923 16.8314 8.38923 16.1503V16.1503Z" fill="#045EA0"/>
</svg>
